<?xml version="1.0" encoding="UTF-8"?>
<svg version="1.1" xmlns="http://www.w3.org/2000/svg" width="200" height="200">
<path d="M0 0 C66 0 132 0 200 0 C200 66 200 132 200 200 C134 200 68 200 0 200 C0 134 0 68 0 0 Z " fill="#010001" transform="translate(0,0)"/>
<path d="M0 0 C4.52452713 4.13946099 5.6835328 7.99127616 7.17578125 13.71875 C8.32073394 16.88771859 10.15142072 18.30625016 13 20 C12.67 21.32 12.34 22.64 12 24 C10.68 22.35 9.36 20.7 8 19 C7.34 20.65 6.68 22.3 6 24 C5.34 24 4.68 24 4 24 C4.33 21.36 4.66 18.72 5 16 C2.03 15.01 -0.94 14.02 -4 13 C-4.13277344 13.68707031 -4.26554687 14.37414062 -4.40234375 15.08203125 C-4.57894531 15.98308594 -4.75554688 16.88414063 -4.9375 17.8125 C-5.11152344 18.70582031 -5.28554688 19.59914063 -5.46484375 20.51953125 C-6 23 -6 23 -7 26 C-3.7 26 -0.4 26 3 26 C3 26.33 3 26.66 3 27 C-2.94 27.495 -2.94 27.495 -9 28 C-9.66 29.65 -10.32 31.3 -11 33 C-11.66 33.66 -12.32 34.32 -13 35 C-8.59245089 34.48749429 -5.68643389 33.4576226 -2 31 C-1.34 30.67 -0.68 30.34 0 30 C-0.0625 31.75 -0.0625 31.75 -1 34 C-6.27002961 38.31184241 -11.12919239 38.67265031 -17.83984375 38.44921875 C-24.30208687 37.5306057 -28.9403762 33.93024301 -32.91796875 28.80859375 C-34.71607153 25.80310066 -35.81844665 22.54141506 -37.01953125 19.26171875 C-38.19221635 16.55660054 -39.89897405 15.02598931 -42 13 C-42.375 10.375 -42.375 10.375 -42 8 C-40 6 -40 6 -36.1875 5.1875 C-31.88750905 4.20952372 -29.96503546 2.28557983 -27 -1 C-17.75949535 -7.31058854 -9.0628259 -5.89083683 0 0 Z " fill="#392668" transform="translate(52,87)"/>
<path d="M0 0 C5.05386356 2.78272549 8.77931571 5.63152095 10.59765625 11.33984375 C11.06779748 13.08938571 11.53152869 14.84066502 11.98828125 16.59375 C13.13323394 19.76271859 14.96392072 21.18125016 17.8125 22.875 C17.4825 24.195 17.1525 25.515 16.8125 26.875 C15.4925 25.225 14.1725 23.575 12.8125 21.875 C12.1525 23.525 11.4925 25.175 10.8125 26.875 C10.1525 26.875 9.4925 26.875 8.8125 26.875 C9.1425 24.235 9.4725 21.595 9.8125 18.875 C6.8425 17.885 3.8725 16.895 0.8125 15.875 C0.67972656 16.56207031 0.54695313 17.24914062 0.41015625 17.95703125 C0.23355469 18.85808594 0.05695312 19.75914063 -0.125 20.6875 C-0.29902344 21.58082031 -0.47304688 22.47414063 -0.65234375 23.39453125 C-1.1875 25.875 -1.1875 25.875 -2.1875 28.875 C1.1125 28.875 4.4125 28.875 7.8125 28.875 C7.8125 29.205 7.8125 29.535 7.8125 29.875 C1.8725 30.37 1.8725 30.37 -4.1875 30.875 C-5.1775 33.35 -5.1775 33.35 -6.1875 35.875 C-6.8475 36.535 -7.5075 37.195 -8.1875 37.875 C-3.77995089 37.36249429 -0.87393389 36.3326226 2.8125 33.875 C3.8025 33.38 3.8025 33.38 4.8125 32.875 C4.75 34.625 4.75 34.625 3.8125 36.875 C-0.90118246 40.41026184 -4.32710475 41.3131188 -10.171875 41.2109375 C-12.1875 40.875 -12.1875 40.875 -15.1875 38.875 C-14.383125 38.42125 -13.57875 37.9675 -12.75 37.5 C-10.09893428 36.12774335 -10.09893428 36.12774335 -9.1875 33.875 C-8.5275 33.875 -7.8675 33.875 -7.1875 33.875 C-6.8575 32.555 -6.5275 31.235 -6.1875 29.875 C-7.445625 29.771875 -8.70375 29.66875 -10 29.5625 C-13.47496568 29.27766675 -14.92099022 28.54190268 -17.1875 25.875 C-15.77047487 26.01730808 -14.3538904 26.16400746 -12.9375 26.3125 C-11.75414062 26.43431641 -11.75414062 26.43431641 -10.546875 26.55859375 C-8.36385361 26.85134993 -6.3101818 27.29564419 -4.1875 27.875 C-4.05472656 27.19953125 -3.92195313 26.5240625 -3.78515625 25.828125 C-3.52025391 24.49007812 -3.52025391 24.49007812 -3.25 23.125 C-3.07597656 22.24328125 -2.90195312 21.3615625 -2.72265625 20.453125 C-2.26381512 18.24264947 -1.75413926 16.05987932 -1.1875 13.875 C-2.5075 13.875 -3.8275 13.875 -5.1875 13.875 C-5.1875 13.215 -5.1875 12.555 -5.1875 11.875 C-3.8675 11.875 -2.5475 11.875 -1.1875 11.875 C-1.331875 10.616875 -1.47625 9.35875 -1.625 8.0625 C-1.70621094 7.35480469 -1.78742187 6.64710937 -1.87109375 5.91796875 C-2.15920735 3.68103607 -2.15920735 3.68103607 -3.1875 0.875 C-7.62208973 2.2687282 -10.06128374 4.48082235 -13.1875 7.875 C-13.1875 3.60673127 -12.81136487 2.93617568 -10.1875 -0.125 C-11.095 0.225625 -12.0025 0.57625 -12.9375 0.9375 C-16.06508436 1.83968779 -17.23958081 2.00881507 -20.1875 0.875 C-12.92557038 -2.75596481 -7.46724229 -3.43448829 0 0 Z " fill="#8C3E75" transform="translate(47.1875,84.125)"/>
<path d="M0 0 C-0.33 0.61875 -0.66 1.2375 -1 1.875 C-2.14193235 3.91018344 -2.14193235 3.91018344 -2 6 C-1.2575 5.175 -0.515 4.35 0.25 3.5 C3 1 3 1 7 1 C9.67927341 5.01891012 9.15601248 7.24161923 9 12 C4.37078475 13.0161692 0.65537393 12.83796731 -4 12 C-6.43430815 18.57263201 -7.90109517 25.08336373 -9 32 C-9.33 32 -9.66 32 -10 32 C-10 30.02 -10 28.04 -10 26 C-10.99 25.67 -11.98 25.34 -13 25 C-11.68 24.67 -10.36 24.34 -9 24 C-9.04125 22.80375 -9.0825 21.6075 -9.125 20.375 C-9.13851708 16.57670047 -8.42009753 13.55024382 -7 10 C-8.43861294 10.08746284 -9.87597508 10.19565348 -11.3125 10.3125 C-12.11300781 10.37050781 -12.91351563 10.42851563 -13.73828125 10.48828125 C-16.36272334 11.08206694 -17.30820672 11.95780294 -19 14 C-19 12.68 -19 11.36 -19 10 C-20.32 9.67 -21.64 9.34 -23 9 C-22.113125 8.773125 -21.22625 8.54625 -20.3125 8.3125 C-16.55055865 6.82191947 -14.71813848 4.94465002 -12 2 C-9.87692181 0.93846091 -8.34380554 0.70893336 -6 0.4375 C-5.29875 0.35371094 -4.5975 0.26992187 -3.875 0.18359375 C-2 0 -2 0 0 0 Z " fill="#793778" transform="translate(37,84)"/>
<path d="M0 0 C3.34373475 0.55728913 6.03312999 1.35173889 9 3 C8.67 5.64 8.34 8.28 8 11 C8.66 11 9.32 11 10 11 C10.33 9.02 10.66 7.04 11 5 C16.875 8.625 16.875 8.625 18 12 C13.59688175 14.80198434 8.98794772 17.29695348 3.875 18.5 C1.82745126 18.94236711 1.82745126 18.94236711 -0.3125 20.5 C-3.54384922 22.30354375 -6.34441948 22.64160975 -10 23 C-9.21172254 21.70626218 -8.41924884 20.41508049 -7.625 19.125 C-7.18414062 18.40570313 -6.74328125 17.68640625 -6.2890625 16.9453125 C-5 15 -5 15 -3 13 C-2.35431493 10.40958879 -2.35431493 10.40958879 -1.9375 7.5 C-1.09073359 2.18146718 -1.09073359 2.18146718 0 0 Z " fill="#6B346E" transform="translate(48,100)"/>
<path d="M0 0 C0.9796875 0.00515625 1.959375 0.0103125 2.96875 0.015625 C3.9484375 0.01046875 4.928125 0.0053125 5.9375 0 C8.46875 0.265625 8.46875 0.265625 10.46875 2.265625 C10.69921875 5.015625 10.69921875 5.015625 10.65625 8.265625 C10.64658203 9.874375 10.64658203 9.874375 10.63671875 11.515625 C10.46875 14.265625 10.46875 14.265625 9.46875 16.265625 C7.51071493 16.31951587 5.55226091 16.35836717 3.59375 16.390625 C1.95792969 16.42542969 1.95792969 16.42542969 0.2890625 16.4609375 C-2.53125 16.265625 -2.53125 16.265625 -4.53125 14.265625 C-4.796875 11.515625 -4.796875 11.515625 -4.78125 8.265625 C-4.78640625 7.193125 -4.7915625 6.120625 -4.796875 5.015625 C-4.4442717 1.36514373 -3.68174768 0.38635624 0 0 Z " fill="#BFBFBF" transform="translate(96.53125,85.734375)"/>
<path d="M0 0 C0.97710937 -0.02578125 1.95421875 -0.0515625 2.9609375 -0.078125 C5.625 0.25 5.625 0.25 7.453125 1.48828125 C8.92293076 3.69788924 9.02671919 5.04675363 9 7.6875 C9.00773437 8.44933594 9.01546875 9.21117188 9.0234375 9.99609375 C8.50772625 12.91340153 7.80246754 14.22773979 5.625 16.25 C2.70703125 16.640625 2.70703125 16.640625 -0.5625 16.5 C-1.64917969 16.46390625 -2.73585938 16.4278125 -3.85546875 16.390625 C-5.10263672 16.32101563 -5.10263672 16.32101563 -6.375 16.25 C-6.40185095 13.77076199 -6.42176547 11.2918116 -6.4375 8.8125 C-6.45006836 7.75192383 -6.45006836 7.75192383 -6.46289062 6.66992188 C-6.47153588 4.86306441 -6.42720011 3.05612397 -6.375 1.25 C-4.64280072 -0.48219928 -2.35473192 0.03708239 0 0 Z " fill="#B8B8B8" transform="translate(117.375,85.75)"/>
<path d="M0 0 C1.41681634 0.31182069 2.83344651 0.62448737 4.25 0.9375 C5.43335938 1.19853516 5.43335938 1.19853516 6.640625 1.46484375 C8.76878703 1.947556 10.88532842 2.46163178 13 3 C12.48594831 7.96916636 11.76615118 12.29026351 10 17 C8.58249437 16.88490339 7.16598831 16.75746342 5.75 16.625 C4.96109375 16.55539063 4.1721875 16.48578125 3.359375 16.4140625 C0.914123 15.98492887 -0.84836903 15.21399362 -3 14 C-3.29341888 8.32723489 -3.00559652 5.00932754 0 0 Z " fill="#08020A" transform="translate(33,95)"/>
<path d="M0 0 C1.21816406 0.03480469 1.21816406 0.03480469 2.4609375 0.0703125 C3.68683594 0.09738281 3.68683594 0.09738281 4.9375 0.125 C5.87722656 0.15980469 5.87722656 0.15980469 6.8359375 0.1953125 C6.1795585 4.68056898 5.13519541 8.86445279 3.8359375 13.1953125 C0.10105973 12.6973288 -1.97643885 12.32039494 -5.1640625 10.1953125 C-4.21422697 0.38034539 -4.21422697 0.38034539 0 0 Z " fill="#0A020D" transform="translate(23.1640625,93.8046875)"/>
<path d="M0 0 C3.34373475 0.55728913 6.03312999 1.35173889 9 3 C8.125 10.75 8.125 10.75 7 13 C3.7 13 0.4 13 -3 13 C-2.69128878 11.20767663 -2.37790936 9.41615679 -2.0625 7.625 C-1.88847656 6.62726563 -1.71445312 5.62953125 -1.53515625 4.6015625 C-1 2 -1 2 0 0 Z " fill="#030004" transform="translate(48,100)"/>
<path d="M0 0 C0.66 1.32 1.32 2.64 2 4 C5.3 4 8.6 4 12 4 C12 4.33 12 4.66 12 5 C6.06 5.495 6.06 5.495 0 6 C-0.66 7.65 -1.32 9.3 -2 11 C-2.66 11.66 -3.32 12.32 -4 13 C0.40754911 12.48749429 3.31356611 11.4576226 7 9 C7.66 8.67 8.32 8.34 9 8 C8.9375 9.75 8.9375 9.75 8 12 C3.28631754 15.53526184 -0.13960475 16.4381188 -5.984375 16.3359375 C-8 16 -8 16 -11 14 C-9.7934375 13.319375 -9.7934375 13.319375 -8.5625 12.625 C-5.91143428 11.25274335 -5.91143428 11.25274335 -5 9 C-4.34 9 -3.68 9 -3 9 C-2.67 7.68 -2.34 6.36 -2 5 C-3.8871875 4.8453125 -3.8871875 4.8453125 -5.8125 4.6875 C-9.28746568 4.40266675 -10.73349022 3.66690268 -13 1 C-11.58297487 1.14230808 -10.1663904 1.28900746 -8.75 1.4375 C-7.56664062 1.55931641 -7.56664062 1.55931641 -6.359375 1.68359375 C-4.17635361 1.97634993 -2.1226818 2.42064419 0 3 C0 2.01 0 1.02 0 0 Z " fill="#4F2C6C" transform="translate(43,109)"/>
<path d="M0 0 C0.99773437 0.02320312 1.99546875 0.04640625 3.0234375 0.0703125 C4.52777344 0.09738281 4.52777344 0.09738281 6.0625 0.125 C6.83335937 0.14820312 7.60421875 0.17140625 8.3984375 0.1953125 C8.3984375 1.1853125 8.3984375 2.1753125 8.3984375 3.1953125 C5.0984375 3.1953125 1.7984375 3.1953125 -1.6015625 3.1953125 C-1.6015625 6.4953125 -1.6015625 9.7953125 -1.6015625 13.1953125 C1.6984375 13.1953125 4.9984375 13.1953125 8.3984375 13.1953125 C8.3984375 14.5153125 8.3984375 15.8353125 8.3984375 17.1953125 C6.79510959 17.27653174 5.19059724 17.33460384 3.5859375 17.3828125 C2.24595703 17.43501953 2.24595703 17.43501953 0.87890625 17.48828125 C-1.6015625 17.1953125 -1.6015625 17.1953125 -3.40625 16.0625 C-5.12238975 13.38173267 -4.96390262 11.28807542 -4.9140625 8.1328125 C-4.91019531 7.06933594 -4.90632812 6.00585938 -4.90234375 4.91015625 C-4.49577494 1.2404767 -3.71637852 0.2790074 0 0 Z " fill="#C5C5C5" transform="translate(151.6015625,85.8046875)"/>
<path d="M0 0 C1.17546556 0.65102708 2.34561699 1.31228246 3.5 2 C3.5 2.99 3.5 3.98 3.5 5 C2.84 4.67 2.18 4.34 1.5 4 C1.5 7.63 1.5 11.26 1.5 15 C-0.48 14.67 -2.46 14.34 -4.5 14 C-4.5 13.34 -4.5 12.68 -4.5 12 C-3.18 12 -1.86 12 -0.5 12 C-0.644375 10.741875 -0.78875 9.48375 -0.9375 8.1875 C-1.01871094 7.47980469 -1.09992187 6.77210937 -1.18359375 6.04296875 C-1.47170735 3.80603607 -1.47170735 3.80603607 -2.5 1 C-6.93458973 2.3937282 -9.37378374 4.60582235 -12.5 8 C-12.5 3.73173127 -12.12386487 3.06117568 -9.5 0 C-10.4075 0.350625 -11.315 0.70125 -12.25 1.0625 C-15.37758436 1.96468779 -16.55208081 2.13381507 -19.5 1 C-12.62983448 -2.43508276 -7.04224416 -3.49007162 0 0 Z " fill="#903C75" transform="translate(46.5,84)"/>
<path d="M0 0 C0.99773437 0.02320312 1.99546875 0.04640625 3.0234375 0.0703125 C4.52777344 0.09738281 4.52777344 0.09738281 6.0625 0.125 C6.83335938 0.14820312 7.60421875 0.17140625 8.3984375 0.1953125 C8.3984375 1.1853125 8.3984375 2.1753125 8.3984375 3.1953125 C5.0984375 3.1953125 1.7984375 3.1953125 -1.6015625 3.1953125 C-1.6015625 6.4953125 -1.6015625 9.7953125 -1.6015625 13.1953125 C1.6984375 13.1953125 4.9984375 13.1953125 8.3984375 13.1953125 C8.3984375 14.1853125 8.3984375 15.1753125 8.3984375 16.1953125 C6.60709772 16.24923243 4.81529851 16.28806821 3.0234375 16.3203125 C2.02570313 16.34351562 1.02796875 16.36671875 0 16.390625 C-2.6015625 16.1953125 -2.6015625 16.1953125 -4.6015625 14.1953125 C-4.8671875 11.4453125 -4.8671875 11.4453125 -4.8515625 8.1953125 C-4.85671875 7.1228125 -4.861875 6.0503125 -4.8671875 4.9453125 C-4.50995419 1.24689707 -3.7408353 0.28084349 0 0 Z " fill="#C3C2C2" transform="translate(79.6015625,85.8046875)"/>
<path d="M0 0 C2.97 0 5.94 0 9 0 C9 3.3 9 6.6 9 10 C6.03 10 3.06 10 0 10 C0 6.7 0 3.4 0 0 Z " fill="#090909" transform="translate(95,89)"/>
<path d="M0 0 C2.67927341 4.01891012 2.15601248 6.24161923 2 11 C-3.94 10.01 -3.94 10.01 -10 9 C-6.4 0 -6.4 0 0 0 Z " fill="#13020E" transform="translate(44,85)"/>
<path d="M0 0 C4.02992782 0.55312735 8.02022924 1.1558062 12 2 C11.67 3.32 11.34 4.64 11 6 C10.34 6 9.68 6 9 6 C8.34 7.32 7.68 8.64 7 10 C4.625 10.1875 4.625 10.1875 2 10 C-0.4294516 6.3558226 -0.16179575 4.28758728 0 0 Z " fill="#07010E" transform="translate(29,112)"/>
<path d="M0 0 C1.51400391 0.01740234 1.51400391 0.01740234 3.05859375 0.03515625 C4.07050781 0.04417969 5.08242187 0.05320312 6.125 0.0625 C7.29869141 0.07990234 7.29869141 0.07990234 8.49609375 0.09765625 C8.49609375 1.08765625 8.49609375 2.07765625 8.49609375 3.09765625 C5.52609375 3.09765625 2.55609375 3.09765625 -0.50390625 3.09765625 C-0.17390625 4.08765625 0.15609375 5.07765625 0.49609375 6.09765625 C3.46609375 6.42765625 6.43609375 6.75765625 9.49609375 7.09765625 C9.49609375 8.08765625 9.49609375 9.07765625 9.49609375 10.09765625 C7.70475397 10.15157618 5.91295476 10.19041196 4.12109375 10.22265625 C3.12335938 10.24585937 2.125625 10.2690625 1.09765625 10.29296875 C-1.50390625 10.09765625 -1.50390625 10.09765625 -3.50390625 8.09765625 C-3.69140625 4.53515625 -3.69140625 4.53515625 -3.50390625 1.09765625 C-2.50390625 0.09765625 -2.50390625 0.09765625 0 0 Z " fill="#C0C0C0" transform="translate(133.50390625,91.90234375)"/>
<path d="M0 0 C3.125 0.375 3.125 0.375 6 1 C7.16063604 5.25566547 6.76173392 8.6835078 6 13 C2.6278951 11.55481219 0.30119637 9.87649547 -2 7 C-2.375 4.375 -2.375 4.375 -2 2 C-1.34 1.34 -0.68 0.68 0 0 Z " fill="#50316F" transform="translate(12,93)"/>
<path d="M0 0 C2.31 0 4.62 0 7 0 C7 3.3 7 6.6 7 10 C4.69 10 2.38 10 0 10 C0 6.7 0 3.4 0 0 Z " fill="#010101" transform="translate(115,89)"/>
<path d="M0 0 C4.146913 1.82952044 5.77315985 4.02349973 8 8 C8 9.32 8 10.64 8 12 C1.125 10.125 1.125 10.125 0 9 C-0.07179964 7.48071962 -0.08392007 5.95832518 -0.0625 4.4375 C-0.05347656 3.61121094 -0.04445312 2.78492187 -0.03515625 1.93359375 C-0.02355469 1.29550781 -0.01195312 0.65742187 0 0 Z " fill="#1E0415" transform="translate(48,88)"/>
<path d="M0 0 C-1.49836105 3.11198065 -3.19933758 6.0534615 -5 9 C-7.97 8.67 -10.94 8.34 -14 8 C-12.76772991 4.30318974 -11.11498278 3.64139444 -7.78125 1.8515625 C-5.14000368 0.58886141 -2.91455636 0 0 0 Z " fill="#11020F" transform="translate(37,84)"/>
<path d="M0 0 C2.97 0.33 5.94 0.66 9 1 C6.35098509 4.7282432 4.46747448 6.80140929 0 8 C-2.8125 8.125 -2.8125 8.125 -5 8 C-3.35 5.36 -1.7 2.72 0 0 Z " fill="#09010E" transform="translate(43,115)"/>
<path d="M0 0 C5.75 1.875 5.75 1.875 8 3 C8.4140625 5.28515625 8.4140625 5.28515625 8.625 8.0625 C8.69976562 8.98160156 8.77453125 9.90070313 8.8515625 10.84765625 C8.90054687 11.55792969 8.94953125 12.26820312 9 13 C5.23437555 11.263234 3.31253337 9.50867132 1 6 C0.25 2.6875 0.25 2.6875 0 0 Z " fill="#0C0226" transform="translate(19,107)"/>
<path d="M0 0 C4.29 0 8.58 0 13 0 C13 1.32 13 2.64 13 4 C8.71 4 4.42 4 0 4 C0 2.68 0 1.36 0 0 Z " fill="#9E9E9E" transform="translate(130,85)"/>
<path d="M0 0 C3.34373475 0.55728913 6.03312999 1.35173889 9 3 C8.67 5.64 8.34 8.28 8 11 C7.67 11 7.34 11 7 11 C6.5978125 9.2984375 6.5978125 9.2984375 6.1875 7.5625 C5.795625 6.386875 5.40375 5.21125 5 4 C4.01 3.67 3.02 3.34 2 3 C1.690625 4.093125 1.38125 5.18625 1.0625 6.3125 C0.41662103 8.55407994 -0.2623117 10.7869351 -1 13 C-1.66 13 -2.32 13 -3 13 C-2.69128878 11.20767663 -2.37790936 9.41615679 -2.0625 7.625 C-1.88847656 6.62726563 -1.71445312 5.62953125 -1.53515625 4.6015625 C-1 2 -1 2 0 0 Z " fill="#180214" transform="translate(48,100)"/>
<path d="M0 0 C0.99773437 0.02320312 1.99546875 0.04640625 3.0234375 0.0703125 C4.52777344 0.09738281 4.52777344 0.09738281 6.0625 0.125 C6.83335938 0.14820312 7.60421875 0.17140625 8.3984375 0.1953125 C8.7284375 1.8453125 9.0584375 3.4953125 9.3984375 5.1953125 C8.7384375 4.8653125 8.0784375 4.5353125 7.3984375 4.1953125 C5.69479928 3.96909169 3.98515049 3.78642777 2.2734375 3.6328125 C0.6646875 3.4884375 -0.9440625 3.3440625 -2.6015625 3.1953125 C-2.9315625 6.8253125 -3.2615625 10.4553125 -3.6015625 14.1953125 C-3.9315625 14.1953125 -4.2615625 14.1953125 -4.6015625 14.1953125 C-4.65545337 12.23727743 -4.69430467 10.27882341 -4.7265625 8.3203125 C-4.74976562 7.22976562 -4.77296875 6.13921875 -4.796875 5.015625 C-4.53687896 1.26128215 -3.79119309 0.28462411 0 0 Z " fill="#BDBDBD" transform="translate(96.6015625,85.8046875)"/>
<path d="M0 0 C2.00720923 0.28674418 4.0085944 0.61866701 6 1 C6.625 2.875 6.625 2.875 7 5 C5 7 5 7 2.5 7.25 C0 7 0 7 -2 5 C-1.46428571 1.46428571 -1.46428571 1.46428571 0 0 Z " fill="#979797" transform="translate(148,111)"/>
<path d="M0 0 C2.375 -0.1875 2.375 -0.1875 5 0 C5.66 0.99 6.32 1.98 7 3 C6.67 3.33 6.34 3.66 6 4 C5.76924918 5.34747084 5.58846937 6.70377565 5.4375 8.0625 C5.293125 9.361875 5.14875 10.66125 5 12 C4.67 12 4.34 12 4 12 C4 9.03 4 6.06 4 3 C1.69 3 -0.62 3 -3 3 C-3 6.3 -3 9.6 -3 13 C-1.02 13 0.96 13 3 13 C3 13.33 3 13.66 3 14 C0.69 14 -1.62 14 -4 14 C-4 10.04 -4 6.08 -4 2 C-2.68 2 -1.36 2 0 2 C0 1.34 0 0.68 0 0 Z " fill="#969696" transform="translate(118,86)"/>
<path d="M0 0 C3.96 0.33 7.92 0.66 12 1 C12 2.32 12 3.64 12 5 C10.37536158 5.05395478 8.75021459 5.09277195 7.125 5.125 C6.22007812 5.14820312 5.31515625 5.17140625 4.3828125 5.1953125 C2 5 2 5 0 3 C0 2.01 0 1.02 0 0 Z " fill="#A9A9A9" transform="translate(148,98)"/>
<path d="M0 0 C2.00720923 0.28674418 4.0085944 0.61866701 6 1 C6 2.65 6 4.3 6 6 C3.125 6.625 3.125 6.625 0 7 C-0.66 6.34 -1.32 5.68 -2 5 C-1.46428571 1.46428571 -1.46428571 1.46428571 0 0 Z " fill="#676767" transform="translate(160,111)"/>
<path d="M0 0 C2.00720923 0.28674418 4.0085944 0.61866701 6 1 C6 2.65 6 4.3 6 6 C3.125 6.625 3.125 6.625 0 7 C-0.66 6.34 -1.32 5.68 -2 5 C-1.46428571 1.46428571 -1.46428571 1.46428571 0 0 Z " fill="#5E5E5E" transform="translate(128,111)"/>
<path d="M0 0 C1.65 0.33 3.3 0.66 5 1 C5 1.99 5 2.98 5 4 C4.34 3.67 3.68 3.34 3 3 C3 6.63 3 10.26 3 14 C0.03 13.505 0.03 13.505 -3 13 C-3 12.34 -3 11.68 -3 11 C-1.68 11 -0.36 11 1 11 C0.67 7.37 0.34 3.74 0 0 Z " fill="#9C3A7D" transform="translate(45,85)"/>
<path d="M0 0 C0.33 0 0.66 0 1 0 C1.33 3.63 1.66 7.26 2 11 C6.455 11.99 6.455 11.99 11 13 C11 13.33 11 13.66 11 14 C9.18757948 14.02687279 7.37504767 14.04633715 5.5625 14.0625 C4.55316406 14.07410156 3.54382813 14.08570312 2.50390625 14.09765625 C0 14 0 14 -1 13 C-1.09873816 11.00200428 -1.12971799 9.00042842 -1.125 7 C-1.12757812 5.906875 -1.13015625 4.81375 -1.1328125 3.6875 C-1 1 -1 1 0 0 Z " fill="#D7D7D7" transform="translate(94,88)"/>
<path d="M0 0 C4.455 0.99 4.455 0.99 9 2 C9 2.66 9 3.32 9 4 C6.21176345 5.0326802 5.1322726 5.04509293 2.25 4.0625 C1.5075 3.711875 0.765 3.36125 0 3 C-0.12117188 3.71027344 -0.24234375 4.42054687 -0.3671875 5.15234375 C-0.53476562 6.07144531 -0.70234375 6.99054688 -0.875 7.9375 C-1.03742187 8.85402344 -1.19984375 9.77054688 -1.3671875 10.71484375 C-1.57601562 11.46894531 -1.78484375 12.22304687 -2 13 C-2.99 13.495 -2.99 13.495 -4 14 C-3.85831863 12.56208484 -3.71148957 11.1246763 -3.5625 9.6875 C-3.48128906 8.88699219 -3.40007813 8.08648437 -3.31640625 7.26171875 C-3 5 -3 5 -2 2 C-1.34 2 -0.68 2 0 2 C0 1.34 0 0.68 0 0 Z " fill="#7C376F" transform="translate(48,97)"/>
<path d="M0 0 C1.51400391 0.01740234 1.51400391 0.01740234 3.05859375 0.03515625 C4.07050781 0.04417969 5.08242187 0.05320312 6.125 0.0625 C7.29869141 0.07990234 7.29869141 0.07990234 8.49609375 0.09765625 C8.49609375 1.08765625 8.49609375 2.07765625 8.49609375 3.09765625 C5.19609375 3.09765625 1.89609375 3.09765625 -1.50390625 3.09765625 C-1.50390625 4.74765625 -1.50390625 6.39765625 -1.50390625 8.09765625 C-3.50390625 6.09765625 -3.50390625 6.09765625 -3.69140625 3.53515625 C-3.43618482 0.21727766 -3.33637075 0.13012366 0 0 Z " fill="#C9C9C9" transform="translate(79.50390625,85.90234375)"/>
<path d="M0 0 C2.97 0.99 5.94 1.98 9 3 C9.33 2.01 9.66 1.02 10 0 C10 1.32 10 2.64 10 4 C7.1875 4.625 7.1875 4.625 4 5 C3.01 4.34 2.02 3.68 1 3 C1.20625 3.78375 1.4125 4.5675 1.625 5.375 C1.810625 6.674375 1.810625 6.674375 2 8 C1.34 8.66 0.68 9.32 0 10 C-1.76462683 6.91190305 -2 5.76687864 -2 2 C-1.34 2 -0.68 2 0 2 C0 1.34 0 0.68 0 0 Z " fill="#3B2361" transform="translate(18,104)"/>
<path d="M0 0 C3.875 1.875 3.875 1.875 5 3 C5.33 2.01 5.66 1.02 6 0 C6.66 0 7.32 0 8 0 C8 2.31 8 4.62 8 7 C4.125 5.125 4.125 5.125 3 4 C2.67 4.99 2.34 5.98 2 7 C1.34 7 0.68 7 0 7 C0 4.69 0 2.38 0 0 Z " fill="#818181" transform="translate(115,111)"/>
<path d="M0 0 C2.31 0 4.62 0 7 0 C6.67 1.32 6.34 2.64 6 4 C4.68 4 3.36 4 2 4 C2 4.66 2 5.32 2 6 C3.65 6 5.3 6 7 6 C7 6.33 7 6.66 7 7 C4.69 7 2.38 7 0 7 C0 4.69 0 2.38 0 0 Z " fill="#787878" transform="translate(174,111)"/>
<path d="M0 0 C0.66 0 1.32 0 2 0 C2.05399736 1.45792884 2.09279177 2.91642712 2.125 4.375 C2.14820312 5.18710938 2.17140625 5.99921875 2.1953125 6.8359375 C2 9 2 9 0 11 C-0.99 11.33 -1.98 11.66 -3 12 C-2.69230293 10.18667846 -2.37870936 8.37435655 -2.0625 6.5625 C-1.80146484 5.04849609 -1.80146484 5.04849609 -1.53515625 3.50390625 C-1 1 -1 1 0 0 Z " fill="#B9B9B9" transform="translate(124,89)"/>
<path d="M0 0 C2 3 2 3 1.5390625 6.57421875 C1.24703719 7.94806509 0.94185048 9.31916586 0.625 10.6875 C0.39683594 11.7403418 0.39683594 11.7403418 0.1640625 12.81445312 C-0.21275232 14.5454462 -0.60491263 16.27308587 -1 18 C-1.33 18 -1.66 18 -2 18 C-2 16.02 -2 14.04 -2 12 C-2.99 11.67 -3.98 11.34 -5 11 C-3.68 10.67 -2.36 10.34 -1 10 C-1.020625 8.72125 -1.04125 7.4425 -1.0625 6.125 C-1.125 2.25 -1.125 2.25 0 0 Z " fill="#5B3476" transform="translate(29,98)"/>
<path d="M0 0 C-0.66 2.64 -1.32 5.28 -2 8 C-2.66 8 -3.32 8 -4 8 C-6 5 -6 5 -5.75 2.875 C-4.52320096 -0.19199761 -3.19812962 0 0 0 Z " fill="#14031F" transform="translate(18,94)"/>
<path d="M0 0 C1.98 0 3.96 0 6 0 C6 0.66 6 1.32 6 2 C4.68 2 3.36 2 2 2 C2 5.3 2 8.6 2 12 C1.34 11.67 0.68 11.34 0 11 C0 7.37 0 3.74 0 0 Z " fill="#D9D9D9" transform="translate(112,86)"/>
<path d="M0 0 C8.42045455 7.97727273 8.42045455 7.97727273 9 13 C8.01 13.495 8.01 13.495 7 14 C6.38125 12.6078125 6.38125 12.6078125 5.75 11.1875 C4.27754064 7.95951882 4.27754064 7.95951882 1.8125 6.4375 C1.214375 5.963125 0.61625 5.48875 0 5 C-0.25 2.3125 -0.25 2.3125 0 0 Z " fill="#170113" transform="translate(59,98)"/>
<path d="M0 0 C2 1.25 2 1.25 4 3 C4 4.32 4 5.64 4 7 C2.02 7.33 0.04 7.66 -2 8 C-1.34 5.36 -0.68 2.72 0 0 Z " fill="#1C0117" transform="translate(59,105)"/>
<path d="M0 0 C2.97 0 5.94 0 9 0 C9 0.99 9 1.98 9 3 C6.03 3 3.06 3 0 3 C0 2.01 0 1.02 0 0 Z " fill="#CFCFCF" transform="translate(134,99)"/>
<path d="M0 0 C0.66 0 1.32 0 2 0 C1.67 0.99 1.34 1.98 1 3 C-1.25325403 3.91276631 -3.51709989 4.45781522 -5.87109375 5.05859375 C-8.17230422 5.83500562 -8.17230422 5.83500562 -9.28515625 8.09765625 C-9.52105469 8.72542969 -9.75695313 9.35320312 -10 10 C-10 8.02 -10 6.04 -10 4 C-6.5980513 1.90649311 -3.94727588 1.82057837 0 2 C0 1.34 0 0.68 0 0 Z " fill="#16051C" transform="translate(19,89)"/>
<path d="M0 0 C-1.75 3.875 -1.75 3.875 -4 5 C-4 4.34 -4 3.68 -4 3 C-6.475 4.485 -6.475 4.485 -9 6 C-9.66 5.34 -10.32 4.68 -11 4 C-7.34730776 1.66633552 -4.38405624 0 0 0 Z " fill="#26041F" transform="translate(37,84)"/>
<path d="M0 0 C0.33 0.99 0.66 1.98 1 3 C-3.18586481 6.18923033 -5.70558305 7.50423019 -11 7 C-8 5 -8 5 -4.9375 3.5 C-1.96887524 2.17432658 -1.96887524 2.17432658 0 0 Z " fill="#50306A" transform="translate(51,117)"/>
<path d="M0 0 C0.66 0 1.32 0 2 0 C2 2.31 2 4.62 2 7 C1.34 7 0.68 7 0 7 C0 6.01 0 5.02 0 4 C-1.32 4 -2.64 4 -4 4 C-4.33 4.99 -4.66 5.98 -5 7 C-5 5.02 -5 3.04 -5 1 C-4.67 1.66 -4.34 2.32 -4 3 C-2.68 3 -1.36 3 0 3 C0 2.01 0 1.02 0 0 Z " fill="#979797" transform="translate(110,111)"/>
<path d="M0 0 C2.31 0 4.62 0 7 0 C7 0.66 7 1.32 7 2 C6.01 2 5.02 2 4 2 C4 3.65 4 5.3 4 7 C3.34 7 2.68 7 2 7 C2 5.35 2 3.7 2 2 C1.34 2 0.68 2 0 2 C0 1.34 0 0.68 0 0 Z " fill="#747575" transform="translate(74,111)"/>
<path d="M0 0 C0.886875 0.165 1.77375 0.33 2.6875 0.5 C2.6875 0.83 2.6875 1.16 2.6875 1.5 C1.0375 1.5 -0.6125 1.5 -2.3125 1.5 C-2.99957555 3.99064888 -3.3125 5.87886292 -3.3125 8.5 C-4.9625 8.5 -6.6125 8.5 -8.3125 8.5 C-4.35626368 0.65754923 -4.35626368 0.65754923 0 0 Z " fill="#170428" transform="translate(46.3125,114.5)"/>
<path d="M0 0 C1.32 0 2.64 0 4 0 C4 1.98 4 3.96 4 6 C2.68 5.67 1.36 5.34 0 5 C0 3.35 0 1.7 0 0 Z " fill="#050008" transform="translate(22,111)"/>
<path d="M0 0 C2.0625 0.4375 2.0625 0.4375 4 1 C3.67 2.32 3.34 3.64 3 5 C1.68 4.67 0.36 4.34 -1 4 C-1 1 -1 1 0 0 Z " fill="#151515" transform="translate(149,112)"/>
<path d="M0 0 C1.65 0 3.3 0 5 0 C4.34 1.65 3.68 3.3 3 5 C1.68 4.67 0.36 4.34 -1 4 C-0.67 2.68 -0.34 1.36 0 0 Z " fill="#181818" transform="translate(96,112)"/>
<path d="M0 0 C4.92127034 -0.16682272 8.50343896 -0.24828052 13 2 C12.01 2.495 12.01 2.495 11 3 C10.67 3.66 10.34 4.32 10 5 C10 4.34 10 3.68 10 3 C9.01 3 8.02 3 7 3 C7 2.34 7 1.68 7 1 C4.69 1 2.38 1 0 1 C0 0.67 0 0.34 0 0 Z " fill="#883269" transform="translate(34,82)"/>
<path d="M0 0 C0.33 0 0.66 0 1 0 C2.23076923 6.4 2.23076923 6.4 1.0625 9.4375 C0.711875 9.953125 0.36125 10.46875 0 11 C-0.66 11 -1.32 11 -2 11 C-1.34 7.37 -0.68 3.74 0 0 Z " fill="#1E0422" transform="translate(47,102)"/>
<path d="M0 0 C2.97 0.99 5.94 1.98 9 3 C9.33 2.01 9.66 1.02 10 0 C10 1.32 10 2.64 10 4 C4.62295082 5.3442623 4.62295082 5.3442623 1.625 3.6875 C0 2 0 2 0 0 Z " fill="#44275D" transform="translate(18,104)"/>
<path d="M0 0 C0 0.66 0 1.32 0 2 C-3.99560608 4.83022097 -7.42737323 3.76210446 -12 3 C-12 2.67 -12 2.34 -12 2 C-10.37548581 1.66430703 -8.75037083 1.3315204 -7.125 1 C-6.22007813 0.814375 -5.31515625 0.62875 -4.3828125 0.4375 C-2 0 -2 0 0 0 Z " fill="#02000F" transform="translate(46,124)"/>
<path d="M0 0 C0.33 0.66 0.66 1.32 1 2 C3.02463255 2.65213292 3.02463255 2.65213292 5 3 C5 3.66 5 4.32 5 5 C-0.75 4.25 -0.75 4.25 -3 2 C-2.01 2 -1.02 2 0 2 C0 1.34 0 0.68 0 0 Z " fill="#2E2160" transform="translate(30,120)"/>
</svg>
